<svg width="60" height="60" viewBox="0 0 60 60" fill="none" xmlns="http://www.w3.org/2000/svg">
<g clip-path="url(#clip0)">
<path d="M18.8856 8.29664C19.1306 8.72144 19.6719 8.85738 20.0862 8.61832C20.5065 8.37562 20.6506 7.83809 20.4079 7.41773L18.3059 3.77684C18.0632 3.35637 17.5255 3.21234 17.1053 3.45516C16.6849 3.69785 16.5409 4.23539 16.7836 4.65574L18.8856 8.29664ZM9.29346 24.9107H5.08936C4.60396 24.9107 4.21045 25.3042 4.21045 25.7896C4.21045 26.275 4.60396 26.6685 5.08936 26.6685H9.29346C9.77885 26.6685 10.1724 26.275 10.1724 25.7896C10.1724 25.3042 9.77885 24.9107 9.29346 24.9107ZM30 5.96191C30.4854 5.96191 30.8789 5.5684 30.8789 5.08301V0.878906C30.8789 0.393516 30.4854 0 30 0C29.5146 0 29.1211 0.393516 29.1211 0.878906V5.08301C29.1211 5.5684 29.5146 5.96191 30 5.96191ZM39.9139 8.61832C40.3272 8.85691 40.8693 8.72156 41.1144 8.29664L43.2165 4.65574C43.4592 4.23539 43.3152 3.69785 42.8949 3.45516C42.4745 3.21223 41.937 3.35648 41.6943 3.77684L39.5922 7.41773C39.3494 7.83809 39.4934 8.37562 39.9139 8.61832ZM54.9107 24.9107H50.7066C50.2212 24.9107 49.8277 25.3042 49.8277 25.7896C49.8277 26.275 50.2212 26.6685 50.7066 26.6685H54.9107C55.3961 26.6685 55.7896 26.275 55.7896 25.7896C55.7896 25.3042 55.3961 24.9107 54.9107 24.9107ZM52.3344 12.8947C52.0917 12.4744 51.5543 12.3304 51.1339 12.573L47.493 14.6752C47.0726 14.9179 46.9286 15.4554 47.1713 15.8757C47.4164 16.3004 47.958 16.4371 48.3719 16.1974L52.0128 14.0953C52.4331 13.8526 52.5771 13.3152 52.3344 12.8947V12.8947ZM30.0001 9.21773C29.9999 9.21773 30 9.21773 29.9997 9.21773C27.8669 9.21773 25.7904 9.615 23.8287 10.3984C23.3779 10.5784 23.1584 11.0898 23.3384 11.5406C23.5184 11.9914 24.0294 12.2109 24.4806 12.0309C26.2342 11.3306 28.091 10.9757 29.9997 10.9757H30.0001C38.1857 10.9758 44.8451 17.6284 44.8451 25.8053C44.8451 30.5904 42.5128 35.1077 38.6062 37.8892C36.1205 39.6589 34.5509 42.409 34.2985 45.3677H30.8789V37.5232C30.9844 37.4577 31.0848 37.3809 31.1763 37.2894L36.2238 32.2437C37.9481 30.52 38.8978 28.2279 38.8978 25.7898C38.8978 23.3516 37.9481 21.0596 36.2238 19.3358L31.1765 14.2902C30.5277 13.6416 29.4723 13.6416 28.8237 14.2902L23.7763 19.3359C22.052 21.0596 21.1023 23.3517 21.1023 25.7899C21.1023 28.228 22.052 30.5201 23.7763 32.2438L28.8237 37.2895C28.9152 37.3811 29.0156 37.4579 29.1211 37.5233V45.3679H25.7026C25.456 42.3914 23.913 39.66 21.4683 37.942C17.505 35.1567 15.1449 30.608 15.1548 25.7741C15.1649 20.8706 17.5915 16.2967 21.646 13.5387C22.0473 13.2656 22.1514 12.7189 21.8783 12.3177C21.6054 11.9164 21.0587 11.8123 20.6574 12.0853C16.1226 15.17 13.4084 20.286 13.397 25.7705C13.3858 31.1776 16.0253 36.2654 20.4576 39.3803C22.4835 40.8041 23.7587 43.0741 23.9535 45.5473C23.0833 45.9048 22.4685 46.7603 22.4685 47.7573V49.2677C22.4685 49.8403 22.6715 50.3663 23.0087 50.7782C22.6715 51.1901 22.4685 51.716 22.4685 52.2886V53.799C22.4685 55.1166 23.541 56.1884 24.8594 56.1884H25.7321V58.114C25.7321 59.1541 26.5783 60.0004 27.6184 60.0004H32.3814C33.4215 60.0004 34.2678 59.1541 34.2678 58.114V56.1884H35.1404C36.4588 56.1884 37.5312 55.1166 37.5312 53.799V52.2886C37.5312 51.716 37.3282 51.1901 36.991 50.7782C37.3282 50.3661 37.5312 49.8403 37.5312 49.2677V47.7573C37.5312 46.7606 36.9169 45.9054 36.0472 45.5476C36.2478 43.0884 37.5529 40.7971 39.6256 39.3213C43.9944 36.2108 46.6028 31.1582 46.6028 25.8055C46.6029 16.6589 39.1551 9.21785 30.0001 9.21773V9.21773ZM25.019 31.0003C23.6268 29.6086 22.8601 27.7581 22.8601 25.7896C22.8601 23.8211 23.6268 21.9705 25.019 20.5788L30 15.5994L34.9811 20.5787C36.3731 21.9704 37.1399 23.8209 37.1399 25.7895C37.1399 27.7579 36.3731 29.6085 34.9811 31.0002L30.8789 35.1011V31.472L32.908 29.4435C33.2514 29.1002 33.2514 28.5438 32.9083 28.2006C32.565 27.8572 32.0086 27.8571 31.6654 28.2004L30.8789 28.9866V27.9401L32.908 25.9116C33.2514 25.5683 33.2514 25.0119 32.9083 24.6687C32.565 24.3253 32.0086 24.3253 31.6654 24.6684L30.8789 25.4545V23.4349C30.8789 22.9495 30.4854 22.556 30 22.556C29.5146 22.556 29.1211 22.9495 29.1211 23.4349V26.6319L28.3347 25.8457C27.9914 25.5026 27.4349 25.5026 27.0918 25.8459C26.7487 26.1892 26.7487 26.7457 27.092 27.0888L29.1211 29.1173V30.1639L28.3347 29.3777C27.9914 29.0346 27.4349 29.0346 27.0918 29.378C26.7487 29.7212 26.7487 30.2777 27.092 30.6209L29.1211 32.6494V35.1011L25.019 31.0003ZM32.5101 58.1136C32.5101 58.1845 32.4524 58.2422 32.3815 58.2422H27.6185C27.5476 58.2422 27.49 58.1845 27.49 58.1136V56.188H32.5101V58.1136ZM35.7736 49.2674C35.7736 49.6157 35.4897 49.8989 35.1407 49.8989H33.5156C33.0303 49.8989 32.6367 50.2924 32.6367 50.7778C32.6367 51.2632 33.0303 51.6567 33.5156 51.6567H35.1406C35.4897 51.6567 35.7735 51.94 35.7735 52.2882V53.7987C35.7735 54.147 35.4896 54.4302 35.1406 54.4302H24.8595C24.5104 54.4302 24.2264 54.147 24.2264 53.7987V52.2882C24.2264 51.9401 24.5104 51.6567 24.8595 51.6567H30C30.4854 51.6567 30.8789 51.2632 30.8789 50.7778C30.8789 50.2924 30.4854 49.8989 30 49.8989H24.8595C24.5104 49.8989 24.2264 49.6157 24.2264 49.2674V47.757C24.2264 47.4087 24.5104 47.1254 24.8595 47.1254H35.1406C35.4897 47.1254 35.7735 47.4087 35.7735 47.757V49.2674H35.7736ZM12.5071 14.6752L8.86619 12.573C8.44584 12.3302 7.9083 12.4744 7.66561 12.8947C7.42291 13.3151 7.56693 13.8526 7.98728 14.0953L11.6282 16.1974C12.0413 16.4365 12.5835 16.3005 12.8288 15.8757C13.0715 15.4553 12.9274 14.9177 12.5071 14.6752Z" fill="#7DA973"/>
</g>
<defs>
<clipPath id="clip0">
<rect width="60" height="60" fill="white"/>
</clipPath>
</defs>
</svg>
