<svg width="60" height="60" viewBox="0 0 60 60" fill="none" xmlns="http://www.w3.org/2000/svg">
<g clip-path="url(#clip0)">
<path d="M59.0625 8.34737C59.042 7.96721 58.779 7.64342 58.4111 7.54546L30.2044 0.0296496C30.056 -0.00984251 29.8999 -0.00984251 29.7515 0.0296496L1.58884 7.54557C1.22157 7.64366 0.958837 7.96663 0.937743 8.3462C0.918173 8.69776 0.497353 17.0797 3.79348 27.6767C5.7307 33.9047 8.55867 39.5911 12.199 44.5782C16.7526 50.8165 22.5932 55.967 29.5584 59.887C29.6921 59.9623 29.8407 60 29.9894 60C30.131 60 30.2726 59.9658 30.4017 59.8974C37.3785 56.1914 43.2289 51.1716 47.7899 44.9772C51.4343 40.0275 54.2655 34.3245 56.2047 28.0263C59.5026 17.315 59.0821 8.70866 59.0625 8.34737ZM54.5063 27.5683C52.6219 33.667 49.8784 39.1836 46.352 43.9652C42.2389 49.5422 37.0378 54.1328 30.8792 57.6284V53.1067C38.8631 48.0664 44.8844 40.9313 48.7768 31.8902C51.9817 24.4461 53.0261 17.3797 53.3378 12.7625C53.3662 12.343 53.0935 11.9621 52.6871 11.854L50.8947 11.3764C50.4258 11.2515 49.9441 11.5303 49.819 11.9995C49.6941 12.4685 49.9729 12.9503 50.4421 13.0752L51.5304 13.3652C51.1698 17.8413 50.1062 24.3566 47.162 31.195C43.4336 39.8555 37.6846 46.6978 30.0697 51.541C29.3053 51.0355 28.5535 50.5081 27.8292 49.9688C27.44 49.6789 26.8892 49.7594 26.5992 50.1488C26.3093 50.5381 26.3898 51.0889 26.7792 51.3788C27.5361 51.9424 28.3223 52.4919 29.121 53.0194V57.5997C22.9597 53.9139 17.7572 49.2016 13.6427 43.5742C10.1174 38.7525 7.37496 33.2491 5.49152 27.2167C2.78063 18.5336 2.64809 11.2139 2.67622 9.07487L29.121 2.01738V6.0321L7.32562 11.8488C6.91828 11.9576 6.64547 12.3402 6.67547 12.7608C6.90246 15.9372 7.54136 20.8794 9.29671 26.3859C12.1986 35.4892 17.0724 43.0838 23.7827 48.9587C23.9495 49.1048 24.1558 49.1764 24.3615 49.1764C24.6061 49.1764 24.8493 49.0749 25.0232 48.8764C25.343 48.5111 25.3061 47.9557 24.9409 47.636C18.4749 41.9752 13.775 34.646 10.9717 25.8521C9.39691 20.9121 8.74839 16.4404 8.48578 13.359L29.9794 7.62292L46.6429 12.063C47.112 12.1878 47.5936 11.9092 47.7186 11.4399C47.8435 10.971 47.5647 10.4892 47.0955 10.3643L30.8791 6.04323V2.02875L57.3237 9.07522C57.3528 11.2508 57.226 18.7666 54.5063 27.5683Z" fill="#7DA973"/>
<path d="M43.2244 20.5378C42.7038 20.0163 42.0111 19.7293 41.274 19.7293C40.5368 19.7293 39.8441 20.0163 39.3239 20.5373L28.1211 31.7396L22.0051 25.6241C21.4847 25.1028 20.7919 24.8157 20.0548 24.8157C19.3175 24.8157 18.6249 25.1027 18.1049 25.6235C17.5839 26.1444 17.2966 26.837 17.2966 27.5738C17.2966 28.3107 17.5836 29.0032 18.1046 29.5238L26.1705 37.5898C26.6912 38.1111 27.3838 38.3982 28.121 38.3982C28.8582 38.3982 29.5508 38.1112 30.0711 37.5902L43.2237 24.4375C43.7449 23.9169 44.032 23.2242 44.032 22.4873C44.032 21.7504 43.745 21.0579 43.2244 20.5378ZM41.9809 23.1942L28.8276 36.3474C28.6392 36.5361 28.3883 36.64 28.121 36.64C27.8537 36.64 27.6028 36.5361 27.414 36.347L19.3475 28.2805C19.1587 28.0918 19.0547 27.8409 19.0547 27.5737C19.0547 27.3065 19.1587 27.0557 19.3481 26.8662C19.5365 26.6776 19.7876 26.5736 20.0548 26.5736C20.3218 26.5736 20.5727 26.6776 20.7617 26.8666L27.4997 33.604C27.8429 33.9473 28.3995 33.9472 28.7427 33.604L40.5675 21.7797C40.7559 21.5911 41.0069 21.4871 41.2741 21.4871C41.5413 21.4871 41.7921 21.5911 41.9812 21.7803C42.17 21.969 42.2741 22.22 42.2741 22.4871C42.2741 22.7541 42.1699 23.0053 41.9809 23.1942Z" fill="#7DA973"/>
</g>
<defs>
<clipPath id="clip0">
<rect width="60" height="60" fill="white"/>
</clipPath>
</defs>
</svg>
