<?xml version="1.0" standalone="no"?>
<!DOCTYPE svg PUBLIC "-//W3C//DTD SVG 20010904//EN"
 "http://www.w3.org/TR/2001/REC-SVG-20010904/DTD/svg10.dtd">
<svg version="1.0" xmlns="http://www.w3.org/2000/svg"
 width="128.000000pt" height="128.000000pt" viewBox="0 0 128.000000 128.000000"
 preserveAspectRatio="xMidYMid meet">

<g transform="translate(0.000000,128.000000) scale(0.100000,-0.100000)"
fill="#000000" stroke="none">
<path fill ="#5B6061" d="M834 1238 c-53 -57 -79 -102 -98 -167 -20 -67 -21 -117 -2 -124 20
-8 36 13 36 45 0 37 9 35 53 -10 29 -30 37 -46 37 -75 0 -25 5 -40 16 -44 24
-9 34 15 34 88 0 61 2 67 34 98 l34 33 12 -58 c14 -75 17 -84 28 -84 41 0 33
98 -14 192 -31 62 -100 148 -119 148 -7 0 -30 -19 -51 -42z m24 -179 l-3 -40
-32 33 -32 33 32 55 32 55 3 -48 c2 -26 2 -66 0 -88z m92 70 c0 -3 -9 -14 -20
-24 -20 -18 -20 -17 -20 31 l0 49 20 -25 c11 -14 20 -28 20 -31z"/>
<path fill ="#5B6061" d="M396 1149 c-81 -19 -170 -71 -237 -138 -271 -272 -177 -719 182 -861
67 -27 220 -37 299 -21 72 15 160 56 160 75 0 27 -19 28 -83 2 -34 -13 -79
-28 -101 -32 -37 -6 -38 -6 -31 17 4 13 21 52 38 86 37 78 76 106 145 103 65
-3 72 -2 72 15 0 38 -106 48 -170 15 -47 -24 -67 -52 -112 -155 -33 -75 -37
-80 -68 -83 -63 -6 -73 2 -94 73 -32 113 -7 193 72 234 53 27 76 56 76 97 0
54 -35 82 -113 90 -53 6 -65 11 -73 30 -9 20 -5 33 31 87 61 94 58 112 -37
225 -25 29 -43 54 -41 56 18 18 139 46 197 46 69 0 95 11 85 36 -6 16 -132 18
-197 3z m-72 -186 c31 -37 56 -75 56 -85 0 -9 -18 -46 -41 -80 -44 -68 -48
-111 -13 -149 19 -21 74 -39 119 -39 32 0 55 -15 55 -37 0 -7 -25 -28 -55 -47
-100 -65 -137 -164 -102 -278 8 -27 13 -48 11 -48 -21 0 -106 52 -147 90 -160
147 -201 384 -99 574 27 51 131 166 150 166 6 0 36 -30 66 -67z"/>
<path fill ="#5B6061" d="M653 1124 c-8 -22 18 -37 36 -20 7 8 10 19 7 25 -10 16 -36 13 -43
-5z"/>
<path fill ="#5B6061" d="M501 941 c-10 -7 -13 -28 -9 -88 12 -206 175 -367 305 -300 28 15 32
15 47 -2 23 -25 24 -240 1 -221 -17 14 -45 7 -45 -13 0 -7 14 -26 30 -42 29
-28 30 -31 30 -127 l0 -98 -427 -2 c-420 -3 -428 -3 -428 -23 0 -20 8 -20 589
-23 603 -2 613 -2 599 35 -4 10 -37 13 -144 13 l-139 0 0 48 c0 36 5 54 20 67
11 10 20 25 20 32 0 8 -9 17 -20 20 -30 8 -26 58 9 102 41 51 85 146 78 165
-12 31 -32 15 -67 -52 l-35 -67 -3 88 c-3 107 5 124 51 101 46 -24 126 -15
172 20 78 60 130 165 141 284 9 92 0 98 -103 83 -108 -16 -183 -53 -244 -119
-47 -52 -51 -54 -64 -36 -8 11 -15 22 -15 26 0 16 -112 90 -161 107 -65 22
-169 34 -188 22z m202 -83 l47 -21 0 -59 c0 -32 -1 -58 -3 -58 -1 0 -41 39
-87 86 l-85 86 40 -6 c22 -4 61 -16 88 -28z m397 -53 l-85 -86 -3 52 c-4 63 6
74 80 100 98 34 99 26 8 -66z m-501 -43 c-39 -4 -46 2 -54 53 l-7 40 46 -45
47 -45 -32 -3z m620 51 c-5 -21 -9 -41 -9 -45 0 -10 -70 -10 -70 -1 0 9 72 83
81 83 4 0 3 -17 -2 -37z m-380 -87 c14 -35 -5 -92 -25 -75 -9 8 -14 33 -14 77
0 62 1 65 15 45 8 -11 19 -33 24 -47z m111 -70 c-8 -8 -13 -7 -20 4 -15 23
-12 58 8 93 l17 32 3 -59 c2 -34 -2 -64 -8 -70z m-211 0 c57 -57 55 -66 -13
-66 -42 0 -104 46 -137 103 -9 15 -4 17 43 17 52 0 56 -2 107 -54z m441 44 c0
-6 -22 -33 -50 -60 -44 -45 -53 -50 -94 -50 -25 0 -48 5 -52 11 -3 6 15 33 42
60 46 46 51 49 101 49 30 0 53 -4 53 -10z"/>
<path fill ="#5B6061" d="M1234 35 c-4 -9 -2 -21 4 -27 15 -15 44 -1 40 19 -4 23 -36 29 -44 8z"/>
</g>
</svg>
