<svg width="60" height="60" viewBox="0 0 60 60" fill="none" xmlns="http://www.w3.org/2000/svg">
<g clip-path="url(#clip0)">
<path d="M7.46606 31.898C6.879 25.2912 9.19067 18.8079 13.8083 14.1105C17.257 10.6031 21.6491 8.36162 26.5099 7.6288C31.2076 6.92047 36.1004 7.72535 40.2868 9.89558C40.5711 10.043 40.6032 10.3303 40.3789 10.578L38.354 12.6065C37.0089 13.9542 37.9359 16.3434 39.8993 16.3426H39.9041L50.4652 16.3207C51.6744 16.3179 52.6576 15.3326 52.6568 14.124L52.6459 3.57894C52.6639 1.64306 50.2176 0.696154 48.9039 2.03877L46.4095 4.53721C46.2656 4.68145 46.042 4.71051 45.8775 4.60658C39.5988 0.640964 32.0813 -0.833471 24.7103 0.455239C24.2321 0.538786 23.9122 0.994135 23.9958 1.47222C24.0794 1.95041 24.5347 2.27031 25.0128 2.18664C31.9538 0.973629 39.0301 2.36065 44.9388 6.0925C45.7921 6.63186 46.9339 6.50015 47.6537 5.77905L50.1479 3.2806C50.4793 2.98321 50.8686 3.17315 50.8884 3.57999L50.8993 14.1255C50.8994 14.3663 50.7029 14.5625 50.4615 14.5631L39.9005 14.585H39.8993C39.4779 14.5652 39.3051 14.1694 39.5979 13.8483L41.6228 11.82C42.652 10.8021 42.3744 8.99801 41.0958 8.33514C36.5825 5.99547 31.3094 5.1279 26.2479 5.89083C21.0076 6.68107 16.2727 9.09726 12.5549 12.8784C7.57562 17.9439 5.08257 24.933 5.71532 32.0538C5.76735 32.6389 5.5644 33.2078 5.15838 33.6143C4.61093 34.1624 3.85045 34.3326 3.12396 34.0701C2.41012 33.8118 1.94317 33.2077 1.87485 32.4539C1.11988 24.1263 4.04614 15.9692 9.90322 10.0736C13.067 6.88813 16.8232 4.56662 21.0672 3.17327C21.5284 3.02188 21.7796 2.5254 21.6282 2.06419C21.4768 1.6031 20.9805 1.35199 20.5191 1.50327C16.0087 2.98403 12.0173 5.45072 8.65622 8.83478C2.43215 15.0999 -0.677606 23.7664 0.124117 32.6123C0.253714 34.0417 1.17414 35.2337 2.52589 35.7226C2.94374 35.8738 3.37296 35.9475 3.7969 35.9475C4.75693 35.9474 5.69001 35.5691 6.4021 34.8559C7.1764 34.0805 7.56425 33.0024 7.46606 31.898V31.898ZM28.6001 48.0383C28.7245 48.0993 28.8564 48.1284 28.9865 48.1284C29.3112 48.1284 29.6235 47.9477 29.7762 47.6365C30.8852 45.3764 32.0779 42.2536 32.6582 38.4868C34.8701 37.07 38.3806 34.1737 39.2036 29.6935C39.8155 26.3626 38.8418 22.727 36.4621 19.4562C34.0252 16.1068 30.2814 13.4446 25.9205 11.9601C25.4034 11.7839 24.8448 11.8872 24.4266 12.2363C24.0086 12.585 23.8071 13.1154 23.8874 13.6551C24.2295 15.9498 23.7002 18.282 22.705 20.1935C22.4348 20.7125 22.1556 21.249 21.8782 21.9206C20.9395 24.1944 20.136 27.884 20.9605 30.7982C21.6721 33.3132 23.7007 35.4736 26.8267 37.0458C28.4052 37.8397 29.9369 38.3195 30.8645 38.568C30.2983 41.9691 29.2115 44.7969 28.198 46.8622C27.9844 47.2978 28.1643 47.8244 28.6001 48.0383V48.0383ZM22.6518 30.3195C22.1783 28.6461 22.2579 25.6073 23.503 22.5912C23.7505 21.9915 24.0117 21.4901 24.264 21.0051C25.4649 18.6983 26.0195 16.5486 25.672 13.7348C29.5562 15.1221 32.8742 17.5121 35.0409 20.49C37.1344 23.3675 37.9989 26.5232 37.4748 29.3756C37.1965 30.8906 36.2293 33.6306 32.9267 36.1571C33.1142 33.7508 32.9688 31.0357 32.562 28.5818C33.014 28.1643 33.4043 27.6912 33.7243 27.1691C34.5378 25.8421 34.7129 24.5126 34.7164 23.631C34.7184 23.1457 34.3266 22.7506 33.8411 22.7487H33.8375C33.3539 22.7487 32.9608 23.1398 32.9588 23.624C32.956 24.3209 32.7591 25.4717 32.1084 26.4329C31.5381 24.1422 30.7038 21.9142 29.6075 19.7723C29.3863 19.3401 28.8568 19.1693 28.4249 19.3904C27.9927 19.6115 27.8219 20.141 28.043 20.5731C29.4626 23.3465 30.4203 26.2714 30.9006 29.2928C30.7474 29.1511 30.5928 29.0114 30.4348 28.8758C29.3079 27.9079 28.055 27.0895 26.7108 26.4432C26.2737 26.233 25.7483 26.4172 25.5379 26.8545C25.3277 27.2919 25.5117 27.8171 25.9492 28.0274C27.1553 28.6071 28.2791 29.3412 29.2896 30.2091C29.9866 30.8077 30.6317 31.4736 31.2115 32.1902C31.3038 33.8114 31.2547 35.3556 31.1028 36.8107C28.915 36.1967 23.793 34.3528 22.6518 30.3195V30.3195ZM59.0716 22.6589C58.7432 21.3695 57.7791 20.3892 56.4923 20.0365C55.1926 19.6804 53.847 20.0376 52.8935 20.9925C51.979 21.9082 51.6088 23.2548 51.9269 24.5062C53.1377 29.2701 52.7443 34.396 50.819 38.9397C50.6296 39.3865 50.8383 39.9024 51.2852 40.0917C51.7319 40.2812 52.2478 40.0725 52.4372 39.6254C54.5115 34.7304 54.9352 29.2071 53.6303 24.0733C53.464 23.4188 53.6582 22.7141 54.1373 22.2343C54.6384 21.7325 55.3456 21.5445 56.0276 21.7317C56.6968 21.9151 57.198 22.4239 57.3684 23.0928C58.7085 28.3533 58.5038 33.8709 56.7766 39.0494C55.0071 44.3549 51.735 48.964 47.3139 52.378C42.2144 56.3149 35.8569 58.3939 29.4184 58.2328C23.0701 58.0737 16.9121 55.7638 12.0781 51.7284C11.3027 51.0816 10.1539 51.0624 9.34663 51.6827L6.54751 53.8332C6.19657 54.0773 5.8168 53.8707 5.85324 53.4391L7.23018 42.9777C7.26182 42.7384 7.4827 42.5688 7.72221 42.6002L18.1873 43.9647C18.62 44.0436 18.7122 44.4597 18.3901 44.7355L16.1164 46.482C14.9622 47.3522 14.9833 49.1687 16.1807 50.0064C20.3445 52.9195 25.4509 54.4713 30.5705 54.3801C35.8664 54.2841 40.8751 52.5088 45.0552 49.2461C47.1653 47.5993 48.9729 45.633 50.4275 43.4016C50.6926 42.995 50.5777 42.4506 50.1711 42.1854C49.7642 41.9201 49.2201 42.0351 48.9549 42.4418C47.6065 44.5102 45.9305 46.3333 43.9738 47.8606C40.0963 50.8871 35.4506 52.5339 30.5385 52.6229C25.7909 52.7053 21.05 51.2682 17.1876 48.5658C16.9302 48.3857 16.9296 48.0923 17.1869 47.8761L19.461 46.1293C20.9945 44.9717 20.2696 42.4455 18.4147 42.2218L7.94941 40.8572C6.75105 40.7012 5.64619 41.5491 5.48777 42.748L4.1107 53.2099C3.99517 54.09 4.41665 54.9451 5.18475 55.3886C5.9553 55.8333 6.91017 55.7706 7.61792 55.2275L10.4176 53.0766C10.5784 52.9531 10.8034 52.9539 10.9522 53.0781C16.0891 57.3665 22.6315 59.8211 29.3746 59.9899C36.2044 60.161 42.9724 57.9518 48.3883 53.7694C53.0866 50.1411 56.5638 45.2434 58.4443 39.6056C60.2782 34.1066 60.4951 28.2466 59.0716 22.6589V22.6589Z" fill="#7DA973"/>
</g>
<defs>
<clipPath id="clip0">
<rect width="60" height="60" fill="white"/>
</clipPath>
</defs>
</svg>
