<svg width="60" height="58" viewBox="0 0 60 58" fill="none" xmlns="http://www.w3.org/2000/svg">
<path d="M5.62688 30.2972H3.03047C1.35949 30.2972 0 31.6567 0 33.3277V52.5413C0 54.2124 1.35949 55.5719 3.03047 55.5719H5.62688C7.29786 55.5719 8.65735 54.2124 8.65735 52.5413V33.3277C8.65735 31.6567 7.29786 30.2972 5.62688 30.2972ZM6.89766 52.5413C6.89766 53.2421 6.32766 53.8122 5.62688 53.8122H3.03047C2.32969 53.8122 1.75969 53.2421 1.75969 52.5413V33.3277C1.75969 32.6269 2.32969 32.0569 3.03047 32.0569H5.62688C6.32766 32.0569 6.89766 32.6269 6.89766 33.3277V52.5413Z" fill="#7DA973"/>
<path d="M59.3834 37.9701C58.2811 36.3501 56.0613 35.9212 54.4361 37.0131L49.7823 40.1277C49.3996 38.6295 48.634 37.2373 47.5547 36.1111C46.2853 34.7867 44.631 33.8765 42.846 33.511C41.8173 30.2214 38.9639 27.7744 35.538 27.2757C34.1365 26.1057 32.4204 25.3935 30.6131 25.2216V22.4564L32.7048 20.6457C33.7403 21.1059 36.1464 22.0506 39.1203 22.3963C39.8582 22.4821 40.5802 22.5248 41.2864 22.5248C45.615 22.5248 49.325 20.9213 52.1062 17.8235C57.1309 12.2268 57.1137 3.54963 57.1105 3.18295C57.1105 3.17955 57.1098 3.17627 57.1097 3.17287C57.1089 3.13513 57.1061 3.09752 57.1006 3.06037C57.0975 3.03822 57.0927 3.01666 57.0882 2.99486C57.087 2.98959 57.0858 2.98443 57.0845 2.97916C57.0177 2.68256 56.8159 2.4258 56.5223 2.33017C56.1674 2.21462 55.7978 2.31224 55.5716 2.60638C55.485 2.68584 54.893 3.19045 53.2043 3.80685C51.53 4.4181 48.3988 5.26877 42.9911 5.84978C36.4729 6.54998 33.7377 10.3027 32.5909 13.3273C31.637 15.8433 31.6132 18.2382 31.6549 19.2272L30.6134 20.1289V18.3482C30.6345 18.2382 30.6344 18.1254 30.6134 18.016V4.88955C30.6134 4.40357 30.2195 4.0097 29.7335 4.0097C29.2476 4.0097 28.8537 4.40357 28.8537 4.88955V16.2423L28.0602 15.5555C28.0964 14.623 28.0637 12.447 27.1975 10.1619C26.1404 7.37393 23.6202 3.91502 17.6165 3.27013C12.6945 2.74127 9.83977 1.96877 8.31176 1.41365C6.78223 0.858179 6.2352 0.402905 6.14859 0.324858C5.92359 0.0294279 5.55504 -0.0678379 5.19961 0.0467716C4.90383 0.142162 4.70156 0.402202 4.63559 0.701499C4.63488 0.704429 4.63418 0.707475 4.63348 0.710522C4.62855 0.733725 4.6234 0.756694 4.62023 0.780249C4.61473 0.81728 4.61191 0.85478 4.61109 0.892397C4.61098 0.895796 4.61027 0.899077 4.61027 0.902476C4.60746 1.23927 4.59152 9.20955 9.20977 14.3536C11.7703 17.2055 15.1841 18.6814 19.1677 18.6814C19.8169 18.6814 20.4816 18.6422 21.1599 18.5632C23.8486 18.2507 26.0344 17.4041 27.0102 16.9741L28.8536 18.5699V21.9536C28.8447 22.0267 28.8441 22.1008 28.8536 22.1742V25.2269C27.0639 25.4068 25.3656 26.116 23.9765 27.2758C20.5505 27.7744 17.6971 30.2216 16.6684 33.5112C16.2093 33.6053 15.7567 33.7382 15.3143 33.9039C14.5485 33.7996 13.7743 33.7461 12.9972 33.7461H11.8634C11.3774 33.7461 10.9835 34.1399 10.9835 34.6259C10.9835 35.1119 11.3774 35.5057 11.8634 35.5057H12.9972C13.7743 35.5057 14.5478 35.5667 15.3116 35.6827C15.628 35.7306 15.9415 35.7888 16.2524 35.8555C16.3105 35.8681 16.3686 35.8804 16.4265 35.8936C16.5001 35.9104 16.5736 35.9277 16.6468 35.9456C16.7405 35.9684 16.8339 35.992 16.927 36.0166C16.9718 36.0283 17.0169 36.0395 17.0616 36.0516C17.2075 36.0914 17.3528 36.1333 17.4974 36.1775C17.5222 36.185 17.5468 36.1929 17.5717 36.2007C17.7067 36.2426 17.8412 36.2861 17.975 36.3317C17.9925 36.3377 18.01 36.3434 18.0274 36.3494C18.3361 36.4558 18.6416 36.5719 18.9433 36.6979C18.956 36.7033 18.9688 36.7087 18.9816 36.7141C19.1295 36.7763 19.2765 36.8405 19.4226 36.9073C19.425 36.9084 19.4275 36.9095 19.4299 36.9106C19.5789 36.9789 19.7268 37.0497 19.8736 37.1228C19.8915 37.1317 19.9092 37.141 19.927 37.15C20.0473 37.2105 20.1668 37.2727 20.2855 37.3363C20.3189 37.3543 20.3524 37.3721 20.3857 37.3902C20.5212 37.4641 20.6561 37.5394 20.7894 37.6175C22.7277 38.7514 24.838 39.4858 27.0618 39.8004C27.0694 39.8016 27.0769 39.8025 27.0845 39.8034L36.174 40.8499C37.7524 41.0781 38.9639 42.3442 39.1218 43.9321L39.1564 44.2797L23.1994 43.6484C23.1314 43.6381 23.0877 43.6011 23.0624 43.5708C23.0354 43.5385 23.0049 43.4841 23.0118 43.4083C23.0556 42.9243 22.6989 42.4963 22.215 42.4525C21.7303 42.4083 21.3031 42.7655 21.2592 43.2493C21.2114 43.7767 21.3719 44.2911 21.7111 44.6978C22.0502 45.1045 22.5273 45.3547 23.0548 45.4026C23.0695 45.4039 23.0844 45.4049 23.0993 45.4054L41.0931 46.1172L43.478 46.251C43.4944 46.252 43.5109 46.2524 43.5272 46.2524C43.5463 46.2524 43.5651 46.2495 43.5839 46.2482C43.601 46.247 43.618 46.2466 43.635 46.2445C43.6655 46.2407 43.6953 46.2344 43.725 46.2275C43.7394 46.2242 43.754 46.2218 43.7682 46.2177C43.8007 46.2085 43.8323 46.1963 43.8635 46.1833C43.8743 46.1788 43.8856 46.1756 43.8962 46.1706C43.9377 46.1514 43.9782 46.1294 44.0165 46.1037L49.6381 42.3414C49.6386 42.3412 49.6389 42.3408 49.6393 42.3405L55.4159 38.4745C56.2416 37.9196 57.3686 38.1374 57.9281 38.9597C58.4396 39.7116 58.3127 40.7337 57.6286 41.3412L46.3599 51.4761C45.4305 52.2296 44.3158 52.7276 43.1344 52.9172L25.6808 55.4333C25.6731 55.4343 25.6645 55.4357 25.6569 55.4369C25.1392 55.5187 24.5991 55.4845 24.052 55.3348L12.1981 50.8458C11.7435 50.6738 11.2357 50.9026 11.0637 51.357C10.8916 51.8115 11.1205 52.3194 11.5748 52.4914L23.4662 56.9946C23.49 57.0036 23.5143 57.0117 23.5389 57.0185C24.061 57.1659 24.5828 57.2398 25.0995 57.2398C25.3799 57.2398 25.659 57.218 25.9355 57.1743C25.9364 57.1742 25.9377 57.174 25.9391 57.1737L43.3925 54.6578C43.3968 54.6572 43.4011 54.6565 43.4055 54.6558C44.9018 54.417 46.3136 53.7845 47.488 52.8265C47.4991 52.8176 47.5098 52.8085 47.5204 52.7989L58.8011 42.6531C60.1408 41.4641 60.3909 39.4507 59.3834 37.9701ZM50.7968 16.6479C47.9304 19.8407 44.0867 21.1886 39.3758 20.6544C37.2662 20.4153 35.4385 19.8333 34.2797 19.3891C34.9224 18.9061 35.5464 18.4607 36.1521 18.0503C37.1067 18.4718 39.3528 19.337 41.7076 19.337C42.076 19.337 42.4472 19.3158 42.8164 19.2685C43.2984 19.2065 43.6389 18.7656 43.577 18.2837C43.515 17.8017 43.0739 17.4604 42.5923 17.5232C40.9487 17.7339 39.191 17.2933 37.9831 16.8756C40.6233 15.2739 42.923 14.2725 45.0419 13.3507C45.24 13.2645 45.4362 13.1792 45.6309 13.0941C46.3053 13.301 47.8846 13.6988 50.0689 13.6988C50.1176 13.6988 50.1672 13.6985 50.2165 13.6982C50.7024 13.6942 51.093 13.2971 51.0891 12.8112C51.0851 12.3278 50.6921 11.9386 50.2094 11.9386C50.2069 11.9386 50.2045 11.9386 50.202 11.9386C49.5107 11.9437 48.8864 11.9038 48.3405 11.8426C50.7394 10.6323 52.9128 9.13912 55.0771 6.39986C54.6524 9.29451 53.5679 13.5615 50.7968 16.6479ZM34.2362 13.9511C35.6499 10.2221 38.6588 8.08502 43.1788 7.59939C48.1955 7.06045 51.4259 6.28561 53.485 5.57123C50.9498 8.67483 48.4008 9.95463 45.2348 11.3464C45.2322 11.3474 45.2297 11.3486 45.2271 11.3496C44.9366 11.4774 44.6413 11.6059 44.3398 11.7371C43.6582 12.0335 42.958 12.3385 42.2349 12.6673C42.364 11.9963 42.5973 11.1655 43.0194 10.3474C43.2422 9.91561 43.0729 9.38486 42.641 9.16209C42.2092 8.93943 41.6785 9.10854 41.4557 9.54049C40.6329 11.1349 40.4033 12.7531 40.3395 13.5681C38.2739 14.5985 36.0055 15.9094 33.4298 17.8261C33.4931 16.789 33.6918 15.3872 34.2362 13.9511ZM20.9567 16.8153C16.6467 17.3161 13.1358 16.0923 10.5191 13.1779C8.07914 10.4603 7.07426 6.73455 6.66012 4.1051C7.68199 5.36158 8.76586 6.39541 9.96703 7.26518C10.7743 7.84971 11.6067 8.33955 12.4627 8.7824C11.9257 8.83221 11.3122 8.85752 10.6324 8.83479C10.1517 8.81744 9.74004 9.19924 9.72375 9.68486C9.70758 10.1705 10.0882 10.5772 10.5738 10.5935C10.7634 10.5999 10.9485 10.6028 11.1292 10.6028C13.1091 10.6028 14.5504 10.2472 15.1876 10.054C15.3582 10.1285 15.5293 10.2031 15.7016 10.2781C17.6027 11.1051 19.6626 12.0013 22.0199 13.4185C20.9037 13.7912 19.3334 14.1574 17.8715 13.9391C17.3911 13.8676 16.9431 14.1988 16.8714 14.6794C16.7997 15.16 17.1311 15.6078 17.6116 15.6795C18.0011 15.7376 18.3928 15.7632 18.7819 15.7632C20.9209 15.7632 22.9601 14.9898 23.8602 14.5958C24.3697 14.9418 24.8929 15.314 25.4308 15.7158C24.3828 16.1097 22.7926 16.6019 20.9567 16.8153ZM20.106 10.3607C20.0366 9.5249 19.7833 7.8565 18.8603 6.29041C18.6134 5.87193 18.0743 5.7326 17.6556 5.97904C17.237 6.22584 17.0975 6.76514 17.3442 7.18373C17.8014 7.95951 18.055 8.78182 18.1959 9.45494C17.5815 9.17709 16.9854 8.91764 16.4037 8.66451C13.2006 7.27092 10.6988 6.18084 8.22739 3.24177C10.1286 3.87517 13.0328 4.54724 17.4285 5.01951C21.5125 5.45826 24.2385 7.37979 25.531 10.7305C26.012 11.9778 26.2027 13.2071 26.2718 14.1488C23.98 12.456 21.954 11.2847 20.106 10.3607ZM43.2828 44.4776L40.9315 44.3457L40.8729 43.7579C40.6343 41.357 38.799 39.4441 36.4099 39.1059C36.4024 39.1047 36.3949 39.1038 36.3872 39.1029L27.2973 38.0565C25.3053 37.7731 23.4148 37.1144 21.6782 36.0985C21.524 36.0082 21.3685 35.9213 21.212 35.8361C21.1708 35.8137 21.129 35.7922 21.0877 35.7701C20.9684 35.7065 20.8487 35.644 20.7281 35.5832C20.6856 35.5618 20.6428 35.5408 20.6001 35.5197C20.4741 35.4575 20.3475 35.397 20.2202 35.3379C20.1863 35.3222 20.1523 35.3064 20.1182 35.2908C19.9685 35.2226 19.8179 35.1566 19.6665 35.0929C19.6547 35.088 19.643 35.0827 19.6311 35.0778C19.2866 34.9336 18.9377 34.8009 18.5845 34.6797C18.5754 34.6765 18.5661 34.6737 18.557 34.6705C18.4398 34.6306 18.3225 34.5907 18.2044 34.5534C18.2109 34.5329 18.2169 34.512 18.2221 34.4907C18.9354 31.543 21.4385 29.3318 24.4506 28.9882C24.6306 28.9676 24.7998 28.8921 24.9352 28.7719C26.266 27.5901 27.9783 26.9393 29.7572 26.9393C31.5361 26.9393 33.2487 27.5902 34.5794 28.7719C34.7147 28.892 34.8839 28.9676 35.0639 28.9882C38.0761 29.3318 40.5791 31.543 41.2925 34.4907C41.3776 34.8427 41.6698 35.1065 42.0286 35.1555C45.1749 35.5852 47.6998 38.0804 48.2082 41.1811L43.2828 44.4776Z" fill="#7DA973"/>
</svg>
