<svg width="60" height="60" viewBox="0 0 60 60" fill="none" xmlns="http://www.w3.org/2000/svg">
<path d="M59.8223 29.4696C52.4501 19.6956 41.5803 14.0901 30 14.0901C18.4196 14.0901 7.5498 19.6957 0.177539 29.4696C-0.0591797 29.7836 -0.0591797 30.2162 0.177539 30.5303C7.5498 40.3043 18.4196 45.91 30 45.91C41.5803 45.91 52.4501 40.3044 59.8223 30.5304C60.0592 30.2163 60.0592 29.7836 59.8223 29.4696ZM30 44.1488C19.1879 44.1488 9.01594 39.001 1.99055 30C9.01594 20.9991 19.1879 15.8513 30 15.8513C40.812 15.8513 50.9839 20.9991 58.0095 30C50.9839 39.001 40.812 44.1488 30 44.1488Z" fill="#7DA973"/>
<path d="M40.4715 20.6602C40.1477 20.2974 39.5909 20.2656 39.228 20.5895C38.8652 20.9134 38.8336 21.4702 39.1573 21.833C41.1645 24.0818 42.2701 26.9824 42.2701 30C42.2701 36.7657 36.7657 42.27 30 42.27C23.2341 42.27 17.7298 36.7656 17.7298 30C17.7298 23.2344 23.2341 17.7299 30 17.7299C31.9809 17.7299 33.8714 18.1872 35.6185 19.0888C36.0505 19.3116 36.5818 19.1422 36.8049 18.7101C37.0279 18.2779 36.8584 17.7467 36.4262 17.5236C34.455 16.5063 32.2329 15.9687 30.0001 15.9687C22.2631 15.9687 15.9688 22.2631 15.9688 30C15.9688 37.737 22.263 44.0313 30 44.0313C37.7369 44.0313 44.0313 37.7368 44.0313 30C44.0313 26.5491 42.767 23.2322 40.4715 20.6602Z" fill="#7DA973"/>
<path d="M29.9999 24.4227C26.9247 24.4227 24.4226 26.9247 24.4226 30C24.4226 33.0752 26.9247 35.5773 29.9999 35.5773C33.0752 35.5773 35.5772 33.0752 35.5772 30C35.5772 26.9248 33.0752 24.4227 29.9999 24.4227ZM29.9999 33.816C27.8958 33.816 26.1838 32.1041 26.1838 29.9999C26.1838 27.8957 27.8958 26.1838 29.9999 26.1838C32.1041 26.1838 33.816 27.8957 33.816 29.9999C33.816 32.1041 32.1041 33.816 29.9999 33.816Z" fill="#7DA973"/>
</svg>
